<svg width="41" height="40" viewBox="0 0 41 40" fill="none" xmlns="http://www.w3.org/2000/svg">
    <path d="m38.64 28.44-9.298-13.002 2.547-1.197h2.952a1.176 1.176 0 0 0 0-2.353h-3.215c-.173 0-.344.038-.5.112l-3.175 1.493-1.685-2.356c.153-.972-.009-2.252-.415-3.221l4.229-1.658c2.152-.809 2.816-2.693 3.906-4.492A1.176 1.176 0 0 0 31.95.587l-1.31 2.261c-.32.554-.824.987-1.419 1.22L24.546 5.9c-2.41-2.648-6.915-2.646-9.322.003l-4.682-1.835a2.847 2.847 0 0 1-1.42-1.22L7.813.588a1.176 1.176 0 1 0-2.036 1.178c1.089 1.799 1.758 3.686 3.906 4.492l4.238 1.66a6.474 6.474 0 0 0-.42 3.218l-1.585 2.262-3.167-1.489a1.175 1.175 0 0 0-.5-.112H4.723a1.176 1.176 0 0 0 0 2.353h3.263l2.56 1.203-9.144 13.043C-2.123 33.12 1.423 40.076 7.314 40c1.512 0 3.044-.057 4.553-.17a11.649 11.649 0 0 0 7.974-4.036 11.568 11.568 0 0 0 7.935 4.044c1.631.12 3.285.17 4.92.162 5.867.076 9.419-6.833 5.944-11.56zm-17.936 3.7a.847.847 0 0 1-.811.562h-.001a.847.847 0 0 1-.811-.563l-.506-1.347a34.629 34.629 0 0 1-1.154-3.685c1.616.46 3.325.46 4.941 0a34.658 34.658 0 0 1-1.191 3.8l-.467 1.234zm2.229-7.774a6.69 6.69 0 0 1-6.085 0 34.51 34.51 0 0 1-.473-5.367 9.064 9.064 0 0 0 7.023-.053 34.494 34.494 0 0 1-.465 5.42zm.414-8.037a6.76 6.76 0 0 1-6.92.077 3.655 3.655 0 0 1 1.083-2.019 3.443 3.443 0 0 1 2.576-.954 3.514 3.514 0 0 1 3.26 2.896zm-3.46-10.078c3.026-.043 5.116 3.368 3.552 6.023-1.93-1.546-5.125-1.618-7.12.038-1.531-2.662.503-6.098 3.568-6.061zm-8.195 31.233a59.18 59.18 0 0 1-4.378.163c-1.903 0-3.554-1.013-4.417-2.71-.862-1.696-.708-3.626.413-5.164l.012-.018 11.165-15.927c.08.124.162.247.25.366-2.29 4.493 1.027 18.697 3.2 20.204a9.29 9.29 0 0 1-6.245 3.086zm25.411-2.527c-.927 1.845-2.83 2.82-4.866 2.69-1.425 0-2.868-.053-4.29-.157a9.2 9.2 0 0 1-6.16-3.046c3.424-3.373 5.032-17.928 3.253-20.305.081-.113.158-.23.233-.347l11.454 16.016c1.101 1.54 1.242 3.465.377 5.149z" fill="#585858"/>
    <path d="M8.905 27.71a3.9 3.9 0 0 0-3.895 3.896c.196 5.161 7.596 5.16 7.791 0a3.9 3.9 0 0 0-3.896-3.896zm0 5.44c-.85 0-1.543-.693-1.543-1.544.078-2.044 3.01-2.044 3.086 0 0 .85-.692 1.543-1.543 1.543zM30.249 27.71a3.9 3.9 0 0 0-3.896 3.896c.196 5.161 7.596 5.16 7.791 0a3.9 3.9 0 0 0-3.895-3.896zm0 5.44c-.851 0-1.543-.693-1.543-1.544.077-2.044 3.009-2.044 3.086 0 0 .85-.693 1.543-1.543 1.543z" fill="#585858"/>
</svg>
