<svg width="32" height="32" fill="none" xmlns="http://www.w3.org/2000/svg">
    <g clip-path="url(#a)">
        <path d="m31.48 18.85-3.75-1.875a.939.939 0 0 0-.419-.1h-2.83a23.109 23.109 0 0 0-.183-2.132l3.433-1.716a.938.938 0 0 0 .518-.839V6.563a.937.937 0 1 0-1.875 0v5.046l-2.42 1.21c-.818-3.604-2.881-7.774-6.377-8.832a5.984 5.984 0 0 1 4.552-2.111h5.182a.937.937 0 1 0 0-1.875H22.13a7.873 7.873 0 0 0-6.13 2.954A7.873 7.873 0 0 0 9.869.001H4.687a.938.938 0 0 0 0 1.875h5.182c1.772 0 3.446.8 4.552 2.111-3.5 1.06-5.559 5.23-6.377 8.832l-2.42-1.21V6.563a.938.938 0 0 0-1.875 0v5.625c0 .355.2.68.518.839L7.7 14.743c-.093.698-.154 1.41-.182 2.133H4.687a.939.939 0 0 0-.42.099L.517 18.85a.937.937 0 0 0 .839 1.677l3.552-1.776h2.61c.053 1.35.219 2.665.49 3.916l-3.74 1.87a.937.937 0 0 0-.519.839v5.687a.938.938 0 0 0 1.875 0v-5.108l2.88-1.44c1.168 3.642 3.716 7.483 7.491 7.486h.008c3.793-.003 6.331-3.869 7.492-7.485l2.879 1.44v5.107a.938.938 0 0 0 1.875 0v-5.687c0-.355-.2-.68-.518-.839l-3.742-1.87a22.64 22.64 0 0 0 .491-3.916h2.61l3.552 1.776a.938.938 0 0 0 .839-1.677zM15.063 29.994c-3.03-.853-5.688-5.89-5.688-12.18 0-2.447.416-4.751 1.122-6.685a8.663 8.663 0 0 0 4.566 1.944v16.92zm.937-18.743a6.734 6.734 0 0 1-4.703-1.926c1.21-2.269 2.885-3.699 4.703-3.699 1.818 0 3.492 1.43 4.703 3.7A6.734 6.734 0 0 1 16 11.25zm.938 18.743v-16.92a8.664 8.664 0 0 0 4.565-1.945c.706 1.934 1.122 4.239 1.122 6.684 0 6.21-2.615 11.316-5.687 12.181z" fill="#585858"/>
    </g>
    <defs>
        <clipPath id="a">
            <path fill="#fff" d="M0 0h32v32H0z"/>
        </clipPath>
    </defs>
</svg>
