<svg width="32" height="32" fill="none" xmlns="http://www.w3.org/2000/svg">
    <g clip-path="url(#a)">
        <path d="M31.078 16.308h-5.539v-1.92a5.855 5.855 0 0 0 4.923-5.772V7.385a.923.923 0 0 0-1.846 0v1.23a4.006 4.006 0 0 1-3.077 3.892v-.814a1.54 1.54 0 0 0-1.538-1.539h-.923V6.77a4.006 4.006 0 0 0-3.229-3.925l.688-1.546a.923.923 0 1 0-1.687-.75l-.988 2.22H14.14L13.152.55a.923.923 0 0 0-1.687.75l.688 1.546A4.006 4.006 0 0 0 8.924 6.77v3.384h-.923a1.54 1.54 0 0 0-1.538 1.539v.814a4.006 4.006 0 0 1-3.077-3.891V7.385a.923.923 0 0 0-1.846 0v1.23a5.855 5.855 0 0 0 4.923 5.774v1.919H.924a.923.923 0 0 0 0 1.846h5.538v1.92a5.855 5.855 0 0 0-4.923 5.772v1.231a.923.923 0 0 0 1.847 0v-1.23a4.006 4.006 0 0 1 3.076-3.892v.507c0 5.26 4.28 9.538 9.539 9.538 5.26 0 9.538-4.279 9.538-9.538v-.507a4.006 4.006 0 0 1 3.077 3.892v1.23a.923.923 0 0 0 1.846 0v-1.23c0-2.91-2.136-5.33-4.923-5.774v-1.919h5.539a.923.923 0 0 0 0-1.846zM10.77 6.77c0-1.188.966-2.154 2.154-2.154h6.154c1.187 0 2.154.966 2.154 2.154v3.384H10.77V6.77zm12.923 15.692c0 4.241-3.45 7.692-7.692 7.692s-7.692-3.45-7.692-7.692V12h6.769v8.923a.923.923 0 0 0 1.846 0V12h6.77v10.462z" fill="#585858"/>
    </g>
    <defs>
        <clipPath id="a">
            <path fill="#fff" d="M0 0h32v32H0z"/>
        </clipPath>
    </defs>
</svg>
