<svg width="32" height="32" fill="none" xmlns="http://www.w3.org/2000/svg">
    <g clip-path="url(#a)">
        <path d="M21.057.053a.5.5 0 0 0-.67.223L15.97 9.11a1.933 1.933 0 0 0-1.273 0L10.281.276a.5.5 0 0 0-.895.448l4.459 8.916c-.879.82-1.47 2.356-1.509 4.167l-.844-.281a.5.5 0 0 0-.317.949l1.203.4c.096.935.341 1.773.696 2.446l-1.358.68h-.382a.5.5 0 0 0 0 1h.5a.5.5 0 0 0 .223-.054l1.244-.622c.016.9.06 2.45.186 3.986.114 1.4.272 2.52.47 3.33l.006.023c-.674.694-1.729 1.22-2.691 1.34a.5.5 0 0 0 .123.992c1.03-.129 2.108-.614 2.92-1.298.134.27.303.504.519.649V31.5a.5.5 0 1 0 1 0v-4.153c.215-.145.384-.379.517-.649.813.684 1.89 1.17 2.92 1.298a.5.5 0 0 0 .124-.992c-.962-.12-2.017-.646-2.69-1.34l.005-.023c.198-.81.356-1.93.47-3.33.125-1.537.17-3.086.186-3.986l1.244.622c.07.035.146.053.223.053h.5a.5.5 0 0 0 0-1h-.381l-1.359-.68c.355-.672.6-1.51.696-2.444l1.202-.401a.5.5 0 0 0-.316-.95l-.844.282c-.04-1.81-.63-3.346-1.509-4.167L21.281.724a.5.5 0 0 0-.224-.671zM14.003 11.06c.374-.674.86-1.06 1.33-1.06.472 0 .957.386 1.331 1.06.042.076.082.155.12.236a3.59 3.59 0 0 0-1.45-.297c-.525 0-1.021.107-1.452.298.039-.081.078-.16.12-.237zm1.33 15.4c-.05-.062-.132-.193-.229-.46h.459c-.097.267-.18.398-.23.46zm.494-1.46h-.91a.508.508 0 0 0-.076.005c-.03-.152-.061-.32-.092-.506h1.17c-.031.183-.062.349-.092.5zm.231-1.5h-1.45c-.035-.303-.07-.636-.101-1h1.653c-.032.364-.066.697-.102 1zm.18-2H14.43a57.38 57.38 0 0 1-.057-1h1.921c-.016.323-.035.659-.057 1zm.097-2h-2.003c-.01-.287-.017-.552-.023-.79.319.187.663.29 1.025.29.361 0 .705-.103 1.024-.29a73.82 73.82 0 0 1-.023.79zm.051-2.225a.5.5 0 0 0-.046.142c-.31.375-.662.582-1.006.582-.345 0-.697-.207-1.007-.582a.498.498 0 0 0-.104-.231c.117-.393.57-.687 1.11-.687.541 0 .994.294 1.111.687a.496.496 0 0 0-.058.09zm.605-1.082c-.393-.423-.99-.694-1.657-.694-.668 0-1.265.271-1.658.694a5.977 5.977 0 0 1-.217-.824c.016-.587.885-1.1 1.875-1.1s1.858.513 1.874 1.1a6.006 6.006 0 0 1-.217.824zm.278-3.07c.006.02.013.037.02.055.025.22.038.445.043.674-.514-.362-1.215-.582-1.998-.582-.784 0-1.485.22-1.998.582.004-.23.018-.456.042-.677a.503.503 0 0 0 .022-.062c.184-.645.997-1.114 1.934-1.114.928 0 1.76.483 1.935 1.124z" fill="#585858"/>
    </g>
    <defs>
        <clipPath id="a">
            <path fill="#fff" d="M0 0h32v32H0z"/>
        </clipPath>
    </defs>
</svg>
