<svg width="32" height="32" viewBox="0 0 32 32" fill="none" xmlns="http://www.w3.org/2000/svg">
<g clip-path="url(#clip0)">
<path d="M28.552 13.0542H18.9458C18.9458 12.9199 18.9473 12.7109 18.8923 12.4253L20.6797 10.6379C20.8555 10.4622 20.9541 10.2236 20.9541 9.9751V4.33838L23.6921 1.60034C24.0583 1.23438 24.0583 0.640625 23.6921 0.274658C23.3262 -0.0915527 22.7324 -0.0915527 22.3662 0.274658L19.3538 3.28711C19.178 3.46289 19.0791 3.70142 19.0791 3.94995V9.58667L17.9153 10.7505C17.6252 10.501 17.2939 10.3132 16.9375 10.1941V3.94995C16.9375 3.43213 16.5178 3.01245 16 3.01245C15.4822 3.01245 15.0625 3.43213 15.0625 3.94995V10.1941C14.7061 10.3132 14.375 10.501 14.0847 10.7505L12.9209 9.58667V3.94995C12.9209 3.70142 12.822 3.46289 12.6462 3.28711L9.63379 0.274658C9.26758 -0.0915527 8.67407 -0.0915527 8.30786 0.274658C7.94165 0.640625 7.94165 1.23438 8.30786 1.60034L11.0459 4.33838V9.97485C11.0459 10.2236 11.1445 10.4619 11.3206 10.6379L13.1077 12.4253C13.0527 12.7109 13.0542 12.9199 13.0542 13.0542H3.448C1.54297 13.0542 0 14.595 0 16.502C0 18.4033 1.54688 19.95 3.448 19.95C4.16162 19.95 5.41284 19.9375 7.0293 19.7439V23.645L4.29126 26.3828C3.92505 26.749 3.92505 27.3425 4.29126 27.7087C4.65723 28.0747 5.25098 28.075 5.61719 27.7087L8.62964 24.6963C8.80542 24.5205 8.9043 24.282 8.9043 24.0334V19.4561C10.3145 19.1921 11.7046 18.823 13.0686 18.3491C13.0903 18.7273 13.1387 19.1016 13.2131 19.4695L11.3206 21.3621C11.1448 21.5381 11.0459 21.7764 11.0459 22.0251V25.6533L6.2998 30.3997C5.93359 30.7656 5.93359 31.3594 6.2998 31.7253C6.48267 31.9084 6.72266 32 6.96265 32C7.20264 32 7.44238 31.9084 7.62549 31.7253L12.6462 26.7046C12.822 26.5288 12.9209 26.2903 12.9209 26.0417V22.4133L13.8916 21.4426C14.04 21.7395 14.2061 22.0286 14.3921 22.3076L15.22 23.5496C15.394 23.8101 15.6865 23.9668 16 23.9668C16.3135 23.9668 16.606 23.8101 16.78 23.5496L17.6079 22.3076C17.7939 22.0286 17.9602 21.7395 18.1084 21.4426L19.0791 22.4133V26.0417C19.0791 26.2903 19.178 26.5288 19.3538 26.7046L24.3745 31.7253C24.5576 31.9084 24.7976 32 25.0374 32C25.2773 32 25.5173 31.9084 25.7004 31.7253C26.0664 31.3594 26.0664 30.7656 25.7004 30.3997L20.9541 25.6533V22.0249C20.9541 21.7764 20.8555 21.5378 20.6794 21.3621L18.7869 19.4695C18.8613 19.1013 18.9097 18.7273 18.9314 18.3491C20.2954 18.823 21.6855 19.1921 23.0959 19.4561V24.0332C23.0959 24.282 23.1946 24.5203 23.3704 24.696L26.3831 27.7087C26.749 28.075 27.3428 28.0747 27.7087 27.7087C28.075 27.3425 28.075 26.749 27.7087 26.3828L24.9709 23.645V19.7439C26.5872 19.9375 27.8384 19.95 28.552 19.95C30.4534 19.95 32 18.4033 32 16.502C32 14.5974 30.4592 13.0542 28.552 13.0542ZM13.0542 16.3616C10.01 17.499 6.82056 18.075 3.56348 18.075H3.448C2.58057 18.075 1.875 17.3694 1.875 16.502C1.875 16.0879 2.04297 15.6824 2.33594 15.3892C2.62817 15.0972 3.03394 14.9292 3.448 14.9292H13.0542V16.3616ZM17.0708 17.8884C17.0708 19.5625 16.4126 20.7207 16 21.3394C15.5874 20.7207 14.9292 19.5623 14.9292 17.8884V12.9875C14.9292 12.7014 15.0405 12.4329 15.2427 12.231C15.4453 12.0281 15.7141 11.9167 16 11.9167C16.2861 11.9167 16.5547 12.0281 16.7573 12.231C16.9595 12.4329 17.0708 12.7014 17.0708 12.9875V17.8884ZM28.552 18.075H28.4365C25.1797 18.075 21.99 17.4988 18.9458 16.3616V14.9292H28.552C28.9661 14.9292 29.3716 15.0972 29.6641 15.3892C29.957 15.6824 30.125 16.0881 30.125 16.5022C30.125 17.3694 29.4194 18.075 28.552 18.075Z" fill="#585858"/>
</g>
<defs>
<clipPath id="clip0">
<rect width="32" height="32" fill="white"/>
</clipPath>
</defs>
</svg>
