<svg width="50" height="50" viewBox="0 0 50 50" fill="none" xmlns="http://www.w3.org/2000/svg">
    <path d="M37.206 34.053a.732.732 0 0 0-.762-.703l-2.06.078c-.117-1.084-.43-2.138-.918-3.173l1.797-.996a.731.731 0 0 0 .38-.645.75.75 0 0 0-.087-.352.735.735 0 0 0-.996-.283l-1.807 1.006a12.932 12.932 0 0 0-1.826-2.275l1.367-1.524a.76.76 0 0 0 .186-.488v-.01a.73.73 0 0 0-.469-.683.743.743 0 0 0-.81.195l-1.368 1.524a15.805 15.805 0 0 0-2.197-1.485l.977-1.797a.75.75 0 0 0 .088-.351.731.731 0 0 0-.381-.645.738.738 0 0 0-.996.293l-.977 1.797a77.193 77.193 0 0 0-.889-.45c-.302-.155-.595-.292-.869-.438l.987-1.768a.743.743 0 0 0-.293-.996.735.735 0 0 0-.996.283l-.987 1.768a7.191 7.191 0 0 1-.859-.625l1.475-1.328a.75.75 0 0 0 .244-.547.73.73 0 0 0-.771-.732.721.721 0 0 0 .146-.44.726.726 0 0 0-.273-.576.752.752 0 0 0 .185-.362c.01-.048.01-.097.01-.146a.722.722 0 0 0-.293-.586c.058.01.107.02.166.02a.737.737 0 0 0 .742-.733.707.707 0 0 0-.313-.596l-1.64-1.152c.273-.332.566-.644.879-.947l1.142 1.338a.744.744 0 0 0 .557.254.743.743 0 0 0 .478-.176.744.744 0 0 0 .254-.557.743.743 0 0 0-.176-.478l-1.142-1.338c.42-.322.85-.625 1.26-.899l.644 1.065c.137.225.381.351.625.351a.736.736 0 0 0 .732-.732.776.776 0 0 0-.107-.38l-.644-1.065a25.913 25.913 0 0 1 1.377-.723l.312.772a.74.74 0 0 0 .684.459.69.69 0 0 0 .273-.059.74.74 0 0 0 .459-.683.688.688 0 0 0-.059-.274l-.361-.889a2.829 2.829 0 0 0 1.064-1.728c1.348.85 2.1 1.807 2.237 2.861.283 2.246-2.246 4.385-2.266 4.404a.74.74 0 0 0-.098 1.035.726.726 0 0 0 .567.264.763.763 0 0 0 .469-.166c.127-.107 3.164-2.666 2.783-5.713-.215-1.748-1.485-3.232-3.78-4.423-.01-1.035-.214-3.418-1.816-4.775-1.113-.928-2.675-1.172-4.609-.684a.738.738 0 0 0-.537.889c.098.39.498.634.889.537 1.455-.362 2.578-.225 3.33.41.683.576 1.005 1.484 1.162 2.285a2.764 2.764 0 0 0-1.407-.195l-.36-.889a.733.733 0 0 0-.958-.4.74.74 0 0 0-.459.683c0 .088.02.186.059.274l.332.81c-.616.274-1.367.645-2.198 1.123l-.644-1.055a.733.733 0 0 0-1.357.381c0 .127.039.264.107.381l.654 1.074a.733.733 0 0 0 .742 1.23l1.416 2.335c-.478.312-.966.654-1.455 1.035l-1.767-2.06a.748.748 0 0 0-.01-.919.736.736 0 0 0-.918-.175l-1.172-1.368a.738.738 0 0 0-1.035-.078.744.744 0 0 0-.254.557c0 .166.059.342.176.478l1.172 1.368a16.373 16.373 0 0 0-1.826 1.992L15.83 9.757a.731.731 0 0 0-1.152.596c0 .234.107.459.312.596l1.71 1.191a12.203 12.203 0 0 0-.811 1.533c-.196.44-.352.889-.479 1.328l-2.04-.4a.727.727 0 0 0-.86.576c-.01.049-.01.098-.01.146 0 .342.244.645.596.723l2.03.4a9.48 9.48 0 0 0 .186 3.35l-1.972.596a.741.741 0 0 0-.488.918.741.741 0 0 0 .918.488l1.972-.596v.01a10.53 10.53 0 0 0 1.553 2.783l-1.533 1.377a.75.75 0 0 0-.245.547c0 .176.06.351.186.488a.749.749 0 0 0 .547.244.71.71 0 0 0 .488-.185l1.533-1.377c.733.703 1.524 1.28 2.324 1.758l-.996 1.796a.743.743 0 0 0 .293.996.743.743 0 0 0 .996-.293l.996-1.787c.372.196.733.381 1.084.557.244.127.489.244.723.371l-.967 1.787a.75.75 0 0 0-.088.352.731.731 0 0 0 .733.732.731.731 0 0 0 .644-.38l.967-1.778c.39.225.762.469 1.113.742l-1.338 1.494a.73.73 0 0 0 .059 1.035.71.71 0 0 0 .488.186c.205 0 .4-.078.547-.244l1.338-1.485c.234.254.45.528.664.82l-1.748.967a.731.731 0 0 0-.38.645.705.705 0 0 0 .488.684.734.734 0 0 0-.147.43v.029a.73.73 0 0 0 .332.585.727.727 0 0 0-.625.723c0 .283.166.557.45.674l1.845.762c-.186.36-.41.712-.645 1.054l-1.416-1.103a.73.73 0 0 0-1.025.127.719.719 0 0 0-.156.449c0 .215.097.44.283.576l1.416 1.103c-.332.391-.684.762-1.045 1.114l-1.006-1.114a.729.729 0 1 0-1.074.987l.996 1.093c-.45.391-.879.733-1.27 1.026l-.644-.928a.735.735 0 0 0-1.015-.185.737.737 0 0 0-.313.605c0 .147.04.293.127.42l.645.918a2.767 2.767 0 0 0-1.182 1.69c-.108.449-.098.907.01 1.347-1.24.498-4.111 1.572-7.412 2.119A.733.733 0 0 0 13.457 50c.04 0 .078 0 .117-.01 3.633-.605 6.709-1.787 7.9-2.275.518.527 1.23.83 1.992.83.518 0 1.026-.147 1.475-.42.039-.02.098-.059.186-.117l.654.937a.737.737 0 0 0 .605.313.73.73 0 0 0 .42-.127.737.737 0 0 0 .313-.606.732.732 0 0 0-.127-.42l-.655-.937c.528-.39 1.172-.889 1.856-1.484l1.015 1.113a.734.734 0 0 0 1.075-.996l-1.016-1.113a23.637 23.637 0 0 0 1.69-1.817l1.454 1.133a.719.719 0 0 0 .45.156.735.735 0 0 0 .732-.732.721.721 0 0 0-.283-.576l-1.455-1.133a.724.724 0 0 0-.176-1.016.74.74 0 0 0-.986.118l-2.13-1.65c.333-.47.616-.938.85-1.397l2.49 1.025a.733.733 0 0 0 .352.957.716.716 0 0 0 .977-.332l.029-.058 1.904.79a.728.728 0 0 0 .957-.39.728.728 0 0 0-.39-.957l-1.905-.791a11.205 11.205 0 0 0 .605-3.125l2.061-.078a.732.732 0 0 0 .703-.732c.01-.01.01-.02.01-.03zm-8.33-27.596c.176.44.108.908-.146 1.27l-.85-2.09c.44.087.82.38.996.82zm-4.414.556a24.39 24.39 0 0 1 1.983-1.015l1.015 2.51c-.4.185-.957.468-1.591.83l-1.407-2.325zm-.283 39.862a1.388 1.388 0 0 1-.703.195c-.469 0-.898-.234-1.142-.644a1.367 1.367 0 0 1-.166-1.016c.078-.341.293-.634.585-.82l1.543 2.207c-.058.049-.107.068-.117.078zm1.319-.908-1.534-2.207c.44-.332.928-.713 1.426-1.142l1.816 1.982a29.747 29.747 0 0 1-1.708 1.367zm4.296-3.984a22.342 22.342 0 0 1-1.523 1.63l-1.816-1.982.263-.264c.342-.341.654-.693.948-1.035l2.128 1.65zm3.115-8.506-2.705.098a6.346 6.346 0 0 0-.38-1.299l2.363-1.309c.37.811.615 1.65.722 2.51zm-4.18.156-1.444.05 1.25-.694c.078.215.146.43.195.644zM20.704 17.53l1.21.235-1.19.361c-.02-.195-.02-.4-.02-.596zm2.1 1.504-1.31 1.172a4.801 4.801 0 0 1-.36-.664l1.67-.508zm.107-2.558c-.01 0-.01 0-.02-.01l-1.904-.371c.088-.254.205-.498.332-.732l1.592 1.113zm-2.588-6.426 1.738 2.031c-.42.4-.8.801-1.133 1.211L18.73 11.76c.45-.556.977-1.133 1.592-1.709zM17.9 12.97l2.207 1.543c-.244.43-.44.86-.576 1.299l-2.666-.527A9.558 9.558 0 0 1 17.9 12.97zm-1.318 3.75 2.666.527c-.03.44-.01.88.068 1.319l-2.588.79a7.792 7.792 0 0 1-.146-2.636zm.556 4.033 2.578-.791c.196.459.42.86.674 1.22L18.38 22.99a9.009 9.009 0 0 1-1.24-2.236zm2.217 3.34 2.012-1.807c.38.342.79.635 1.24.918l-1.308 2.354a12.514 12.514 0 0 1-1.944-1.465zm4.258 2.695c-.342-.176-.684-.342-1.026-.518l1.31-2.353c.302.156.605.313.927.469.273.136.556.283.84.43l-1.28 2.363a57.136 57.136 0 0 0-.771-.391zm2.05 1.094 1.28-2.364c.644.372 1.289.791 1.914 1.29l-1.807 2.001c-.449-.341-.908-.654-1.386-.927zm2.481 1.914 1.807-2.012a12.071 12.071 0 0 1 1.523 1.895l-2.354 1.308a10.11 10.11 0 0 0-.976-1.191zm-1.21 5.37 1.845-.068a3.79 3.79 0 0 1-.088.46c-.02.097-.049.204-.078.302l-1.68-.693zm5.81 1.329a9.483 9.483 0 0 1-.274.957l-2.49-1.026c.058-.175.107-.361.146-.537.069-.283.108-.566.137-.84l2.705-.097a8.53 8.53 0 0 1-.225 1.543z" fill="#585858"/>
</svg>
