<svg width="32" height="45" viewBox="0 0 32 45" fill="none" xmlns="http://www.w3.org/2000/svg">
    <path d="M30.635 38.513 26.818 37.5l-1.888-6.935a.879.879 0 0 0-.618-.618c-.713-.193-1.492-.41-1.996-.557.135-1.342.248-2.754.339-4.231.075-1.233.121-2.319.15-3.177l2.818 1.343 1.653 6.175a.88.88 0 0 0 1.698-.455l-1.758-6.567a.878.878 0 0 0-.47-.566l-3.894-1.855c.002-.04.005-.108.005-.202-.004-.334-.015-1.352-.557-2.38a3.793 3.793 0 0 0-.098-.17c.077-.493.13-1.258.083-2.15l3.197-.629a.878.878 0 0 0 .689-1.052l-.974-4.396 1.992-3.02a.88.88 0 0 0-1.468-.968l-2.197 3.33a.879.879 0 0 0-.124.675l.86 3.88-2.186.43c-.332-1.717-1.162-3.995-3.199-5.783-.098-.966-.524-1.616-.976-2.044.66-1.641 1.81-3.821 4.162-3.821a.879.879 0 1 0 0-1.758c-1.625 0-3.082.727-4.212 2.104-.793.964-1.26 2.03-1.51 2.646-.458-.1-.93-.1-1.388 0-.251-.616-.717-1.682-1.51-2.646C12.31.727 10.853 0 9.229 0a.879.879 0 1 0 0 1.758c2.351 0 3.501 2.18 4.162 3.821-.453.428-.879 1.078-.977 2.044-2.036 1.788-2.866 4.066-3.199 5.783l-2.185-.43.86-3.88a.879.879 0 0 0-.125-.674L5.568 5.09a.879.879 0 0 0-1.467.968l1.992 3.02-.974 4.396a.879.879 0 0 0 .688 1.052l3.197.63c-.046.891.006 1.656.083 2.148a4.205 4.205 0 0 0-.4.89 5.556 5.556 0 0 0-.255 1.661c0 .089.003.157.005.202l-3.893 1.855a.88.88 0 0 0-.471.566l-1.758 6.567a.879.879 0 1 0 1.698.455l1.653-6.175 2.818-1.343c.059 1.74.192 4.454.49 7.408-.505.147-1.284.364-1.996.557a.879.879 0 0 0-.619.617l-1.888 6.936-3.817 1.012a.879.879 0 1 0 .45 1.699l4.307-1.142a.88.88 0 0 0 .623-.619l1.89-6.938c.529-.145.934-.259 1.246-.348.042.343.086.689.132 1.034.225 1.66.487 3.17.778 4.492.338 1.534.729 2.876 1.161 3.987.51 1.302 1.07 2.282 1.712 2.997.374.414.777.735 1.201.955.463.243.934.37 1.49.37.73 0 1.4-.24 2.002-.69.53-.396 1.005-.942 1.452-1.67.122-.2.16-.437.104-.665a.874.874 0 0 0-.853-.673.876.876 0 0 0-.75.42c-.296.483-.616.87-.931 1.122-.024.019-.12.088-.145.105 0 0 .059-17.833 0-23.776-.002-.28.074-.682.428-1.098.176-.211.386-.365.66-.486.358-.158.806-.238 1.33-.238.501.002.885.095 1.208.294.36.222.614.578.78 1.088.165.507.17 1.025.17 1.123 0 .052-.193 8.725-1.249 14.649a.88.88 0 0 0 1.73.308 67.73 67.73 0 0 0 .539-3.649c.312.09.718.204 1.247.349l1.89 6.938a.88.88 0 0 0 .622.619l4.307 1.142a.881.881 0 0 0 1.075-.624.879.879 0 0 0-.625-1.075zM13.63 41.62c-.728-1.226-1.386-3.173-1.903-5.633-.757-3.574-1.132-7.72-1.314-10.57-.104-1.616-.223-5.498-.223-5.562-.005-.307.062-1.028.35-1.551.158-.294.349-.504.6-.66.323-.199.707-.292 1.209-.294.612.001 1.098.104 1.485.314.51.28.708.676.812.95.066.18.119.456.119.536v23.8c-.384-.264-.78-.726-1.135-1.33zm5.322-26.027h-.019c-.897 0-1.677.177-2.318.527-.37.2-.697.461-.97.777a3.458 3.458 0 0 0-.97-.777c-.642-.35-1.422-.527-2.32-.527h-.018c-.578 0-1.118.1-1.594.291-.004-.56.036-1.26.176-2.03.392-2.16 1.37-3.884 2.904-5.122a.879.879 0 0 0 .328-.684c0-.609.206-1.048.63-1.342a1.504 1.504 0 0 1 1.727 0c.425.294.63.733.63 1.342 0 .266.121.518.328.684 1.535 1.238 2.512 2.961 2.905 5.122.14.77.18 1.47.175 2.03a4.286 4.286 0 0 0-1.594-.291z" fill="#585858"/>
    <path d="M19.842 39.403a.879.879 0 1 0 0-1.758.879.879 0 0 0 0 1.758z" fill="#585858"/>
</svg>
