<svg width="94" height="14" fill="none" xmlns="http://www.w3.org/2000/svg">
    <path d="M7.36.004 9.636 4.47l5.086.72-3.68 3.473.869 4.907-4.55-2.318-4.548 2.318.868-4.907L0 5.19l5.086-.72L7.361.004zM26.96.004l2.275 4.465 5.086.72-3.68 3.473.869 4.907-4.55-2.318-4.548 2.318.868-4.907L19.6 5.19l5.086-.72L26.961.004zM46.56.004l2.275 4.465 5.087.72-3.68 3.473.868 4.907-4.55-2.318-4.548 2.318.868-4.907L39.2 5.19l5.086-.72L46.561.004zM66.16.004l2.275 4.465 5.086.72-3.68 3.473.868 4.907-4.549-2.318-4.548 2.318.868-4.907L58.8 5.19l5.086-.72L66.16.004zM85.76.004l2.275 4.465 5.086.72-3.68 3.473.868 4.907-4.548-2.318-4.55 2.318.87-4.907L78.4 5.19l5.086-.72L85.761.004z" fill="#00E676"/>
</svg>
